<?xml version="1.0" standalone="no"?>
<!DOCTYPE svg PUBLIC "-//W3C//DTD SVG 20010904//EN"
 "http://www.w3.org/TR/2001/REC-SVG-20010904/DTD/svg10.dtd">
<svg version="1.0" xmlns="http://www.w3.org/2000/svg"
 width="500.000000pt" height="500.000000pt" viewBox="0 0 500.000000 500.000000"
 preserveAspectRatio="xMidYMid meet">
<metadata>
Created by potrace 1.14, written by Peter Selinger 2001-2017
</metadata>
<g transform="translate(0.000000,500.000000) scale(0.100000,-0.100000)"
fill="#000000" stroke="none">
<path d="M104 4981 c-48 -22 -80 -59 -94 -110 -7 -24 -10 -830 -10 -2381 1
-2252 1 -2347 19 -2385 22 -48 44 -69 93 -90 33 -13 298 -15 2390 -15 2261 0
2355 1 2393 19 48 22 69 44 90 93 13 33 15 297 14 2385 0 1996 -2 2354 -14
2388 -17 49 -62 90 -112 104 -26 8 -767 11 -2383 11 -2261 0 -2346 -1 -2386
-19z"/>
</g>
</svg>
