<?xml version="1.0" standalone="no"?>
<!DOCTYPE svg PUBLIC "-//W3C//DTD SVG 20010904//EN"
 "http://www.w3.org/TR/2001/REC-SVG-20010904/DTD/svg10.dtd">
<svg version="1.0" xmlns="http://www.w3.org/2000/svg"
 width="500.000000pt" height="500.000000pt" viewBox="0 0 500.000000 500.000000"
 preserveAspectRatio="xMidYMid meet">
<metadata>
Created by potrace 1.14, written by Peter Selinger 2001-2017
</metadata>
<g transform="translate(0.000000,500.000000) scale(0.100000,-0.100000)"
fill="#000000" stroke="none">
<path d="M0 2500 l0 -2500 2500 0 2500 0 0 2500 0 2500 -2500 0 -2500 0 0
-2500z m3130 885 l0 -95 -265 0 -265 0 0 -770 0 -770 -110 0 -110 0 0 770 0
770 -260 0 -260 0 0 95 0 95 635 0 635 0 0 -95z m-790 -1779 c0 -8 -10 -16
-22 -18 -15 -2 -24 -11 -26 -25 -3 -20 1 -23 32 -23 32 0 36 3 36 25 0 18 5
25 20 25 15 0 20 -7 20 -25 0 -18 5 -25 20 -25 11 0 20 -7 20 -15 0 -8 -9 -15
-20 -15 -18 0 -20 -7 -20 -60 0 -53 2 -60 20 -60 11 0 20 -7 20 -15 0 -18 -50
-21 -68 -3 -7 7 -12 39 -12 75 l0 63 -35 0 -35 0 0 -75 c0 -68 -2 -75 -20 -75
-18 0 -20 7 -20 75 0 60 -3 75 -15 75 -8 0 -15 7 -15 15 0 8 7 15 15 15 9 0
15 9 15 22 0 12 7 30 17 40 19 22 73 25 73 4z m1100 -116 c0 -109 -2 -130 -15
-130 -8 0 -15 5 -15 10 0 7 -6 7 -19 0 -61 -32 -121 9 -121 82 0 56 37 91 91
86 l39 -4 0 43 c0 36 3 43 20 43 19 0 20 -7 20 -130z m-2070 100 c0 -13 -7
-20 -20 -20 -13 0 -20 7 -20 20 0 13 7 20 20 20 13 0 20 -7 20 -20z m-110 -25
c0 -18 5 -25 20 -25 11 0 20 -7 20 -15 0 -8 -9 -15 -20 -15 -18 0 -20 -7 -20
-60 0 -53 2 -60 20 -60 11 0 20 -7 20 -15 0 -18 -50 -21 -68 -3 -7 7 -12 39
-12 75 0 49 -3 63 -15 63 -8 0 -15 7 -15 15 0 8 7 15 15 15 9 0 15 9 15 25 0
18 5 25 20 25 15 0 20 -7 20 -25z m200 0 c0 -18 5 -25 20 -25 11 0 20 -7 20
-15 0 -8 -9 -15 -20 -15 -18 0 -20 -7 -20 -60 0 -53 2 -60 20 -60 11 0 20 -7
20 -15 0 -18 -50 -21 -68 -3 -7 7 -12 39 -12 75 0 49 -3 63 -15 63 -8 0 -15 7
-15 15 0 8 7 15 15 15 9 0 15 9 15 25 0 18 5 25 20 25 15 0 20 -7 20 -25z
m-90 -115 c0 -83 -1 -90 -20 -90 -19 0 -20 7 -20 90 0 83 1 90 20 90 19 0 20
-7 20 -90z m273 73 c10 -12 16 -43 19 -89 l3 -72 -64 2 c-71 1 -89 15 -78 58
7 27 43 48 83 48 22 0 23 2 14 21 -9 15 -19 20 -45 18 -39 -4 -57 8 -35 21 25
16 86 11 103 -7z m97 5 c0 -9 3 -9 12 0 13 13 57 16 75 4 20 -12 33 -60 33
-118 0 -47 -2 -54 -20 -54 -18 0 -20 7 -20 56 0 64 -13 94 -40 94 -27 0 -40
-30 -40 -94 0 -49 -2 -56 -20 -56 -19 0 -20 7 -20 90 0 83 1 90 20 90 11 0 20
-5 20 -12z m264 4 c9 -15 -9 -27 -38 -27 -42 0 -42 -17 2 -40 43 -23 57 -70
26 -92 -19 -14 -90 -18 -98 -5 -9 15 9 27 43 27 49 0 49 20 2 45 -34 17 -41
26 -41 50 0 17 7 33 18 39 20 12 79 14 86 3z m183 -14 c28 -32 34 -66 18 -104
-38 -91 -165 -64 -165 36 0 55 34 90 88 90 27 0 44 -7 59 -22z m323 -48 l16
-65 20 65 c15 50 24 65 38 65 15 0 23 -14 36 -60 18 -65 21 -64 41 13 9 39 17
52 31 52 23 0 23 2 -9 -97 -35 -106 -54 -111 -81 -20 l-18 62 -21 -60 c-15
-45 -24 -60 -38 -60 -15 0 -24 16 -42 75 -27 90 -28 102 -6 98 12 -2 22 -23
33 -68z m343 53 c10 -12 16 -43 19 -89 l3 -72 -64 2 c-71 1 -89 15 -78 58 7
27 43 48 83 48 22 0 23 2 14 21 -9 15 -19 20 -45 18 -39 -4 -57 8 -35 21 25
16 86 11 103 -7z m97 5 c0 -9 3 -9 12 0 17 17 48 15 48 -3 0 -8 -6 -15 -14
-15 -26 0 -46 -42 -46 -97 0 -46 -3 -53 -20 -53 -19 0 -20 7 -20 90 0 83 1 90
20 90 11 0 20 -5 20 -12z m210 -8 c11 -11 20 -33 20 -50 l0 -30 -66 0 -66 0
14 -22 c12 -18 27 -24 62 -26 62 -4 56 -26 -7 -30 -39 -3 -51 1 -72 22 -35 35
-35 97 0 131 31 32 86 34 115 5z m450 0 c11 -11 20 -33 20 -50 l0 -30 -66 0
-66 0 14 -22 c12 -18 27 -24 62 -26 62 -4 56 -26 -7 -30 -39 -3 -51 1 -72 22
-35 35 -35 97 0 131 31 32 86 34 115 5z m96 -50 c24 -72 25 -72 55 28 9 31 17
42 32 42 11 0 17 -5 14 -12 -2 -7 -17 -48 -33 -90 -31 -85 -55 -101 -75 -50
-6 15 -22 55 -35 90 l-24 63 22 -3 c16 -2 26 -18 44 -68z m-469 -71 c16 -16 5
-39 -18 -39 -12 0 -19 7 -19 18 0 31 17 41 37 21z"/>
<path d="M3322 1498 c-16 -16 -16 -80 0 -96 7 -7 21 -12 33 -12 31 0 45 19 45
60 0 41 -14 60 -45 60 -12 0 -26 -5 -33 -12z"/>
<path d="M1567 1433 c-17 -16 -6 -43 16 -43 25 0 47 17 47 37 0 13 -51 19 -63
6z"/>
<path d="M2092 1498 c-17 -17 -15 -83 2 -98 23 -18 59 -8 76 23 13 24 13 30 0
55 -17 30 -57 41 -78 20z"/>
<path d="M2777 1433 c-17 -16 -6 -43 16 -43 25 0 47 17 47 37 0 13 -51 19 -63
6z"/>
<path d="M3072 1498 c-21 -21 -13 -28 33 -28 43 0 45 1 35 20 -12 22 -49 27
-68 8z"/>
<path d="M3522 1498 c-21 -21 -13 -28 33 -28 43 0 45 1 35 20 -12 22 -49 27
-68 8z"/>
</g>
</svg>
